<?xml version="1.0" encoding="UTF-8" standalone="no"?>
<!-- Generator: Adobe Illustrator 18.0.0, SVG Export Plug-In . SVG Version: 6.00 Build 0)  -->

<svg
   xmlns:dc="http://purl.org/dc/elements/1.1/"
   xmlns:cc="http://creativecommons.org/ns#"
   xmlns:rdf="http://www.w3.org/1999/02/22-rdf-syntax-ns#"
   xmlns:svg="http://www.w3.org/2000/svg"
   xmlns="http://www.w3.org/2000/svg"
   xmlns:sodipodi="http://sodipodi.sourceforge.net/DTD/sodipodi-0.dtd"
   xmlns:inkscape="http://www.inkscape.org/namespaces/inkscape"
   version="1.1"
   id="Capa_1"
   x="0px"
   y="0px"
   viewBox="0 0 463.814 463.814"
   style="enable-background:new 0 0 463.814 463.814;"
   xml:space="preserve"
   sodipodi:docname="icon.svg"
   enable-background="new"
   inkscape:version="0.92.3 (2405546, 2018-03-11)"
   inkscape:export-filename="C:\GitHub\WorkloadTools\Icon\icon.png"
   inkscape:export-xdpi="300"
   inkscape:export-ydpi="300"><metadata
   id="metadata98"><rdf:RDF><cc:Work
       rdf:about=""><dc:format>image/svg+xml</dc:format><dc:type
         rdf:resource="http://purl.org/dc/dcmitype/StillImage" /><dc:title></dc:title></cc:Work></rdf:RDF></metadata><defs
   id="defs96"><filter
     inkscape:collect="always"
     style="color-interpolation-filters:sRGB"
     id="filter4827"><feBlend
       inkscape:collect="always"
       mode="hard-light"
       in2="BackgroundImage"
       id="feBlend4829" /></filter></defs><sodipodi:namedview
   pagecolor="#ffffff"
   bordercolor="#666666"
   borderopacity="1"
   objecttolerance="10"
   gridtolerance="10"
   guidetolerance="10"
   inkscape:pageopacity="0"
   inkscape:pageshadow="2"
   inkscape:window-width="1920"
   inkscape:window-height="1017"
   id="namedview94"
   showgrid="false"
   inkscape:zoom="1.8283191"
   inkscape:cx="376.38187"
   inkscape:cy="199.95087"
   inkscape:window-x="-8"
   inkscape:window-y="-8"
   inkscape:window-maximized="1"
   inkscape:current-layer="layer1" />

<g
   id="g63"
   inkscape:export-xdpi="300"
   inkscape:export-ydpi="300">
</g>
<g
   id="g65"
   inkscape:export-xdpi="300"
   inkscape:export-ydpi="300">
</g>
<g
   id="g67"
   inkscape:export-xdpi="300"
   inkscape:export-ydpi="300">
</g>
<g
   id="g69"
   inkscape:export-xdpi="300"
   inkscape:export-ydpi="300">
</g>
<g
   id="g71"
   inkscape:export-xdpi="300"
   inkscape:export-ydpi="300">
</g>
<g
   id="g73"
   inkscape:export-xdpi="300"
   inkscape:export-ydpi="300">
</g>
<g
   id="g75"
   inkscape:export-xdpi="300"
   inkscape:export-ydpi="300">
</g>
<g
   id="g77"
   inkscape:export-xdpi="300"
   inkscape:export-ydpi="300">
</g>
<g
   id="g79"
   inkscape:export-xdpi="300"
   inkscape:export-ydpi="300">
</g>
<g
   id="g81"
   inkscape:export-xdpi="300"
   inkscape:export-ydpi="300">
</g>
<g
   id="g83"
   inkscape:export-xdpi="300"
   inkscape:export-ydpi="300">
</g>
<g
   id="g85"
   inkscape:export-xdpi="300"
   inkscape:export-ydpi="300">
</g>
<g
   id="g87"
   inkscape:export-xdpi="300"
   inkscape:export-ydpi="300">
</g>
<g
   id="g89"
   inkscape:export-xdpi="300"
   inkscape:export-ydpi="300">
</g>
<g
   id="layer3"
   inkscape:label="Layer 3"
   style="display:inline" /><g
   inkscape:groupmode="layer"
   id="layer1"
   inkscape:label="Layer 1"
   style="display:inline"><path
     style="display:inline;fill:#47a5d3;fill-opacity:1;fill-rule:evenodd;stroke:none;stroke-width:1.965819;stroke-opacity:1"
     d="M 232.29332,454.0116 V 62.445039 c 0.0617,-5.9e-5 0.12247,0 0.1842,0 108.13244,0 195.78328,87.650851 195.78328,195.783281 0,108.13243 -87.65084,195.78328 -195.78328,195.78328 -0.0617,0 -0.12248,6e-5 -0.1842,0 z"
     id="path2985-7"
     inkscape:connector-curvature="0"
     inkscape:export-filename="D:\Documenti\sqlconsulting\Logo\logo_VECT2.png"
     inkscape:export-xdpi="300"
     inkscape:export-ydpi="300" /><path
     style="display:inline;fill:#00007f;fill-opacity:1;fill-rule:evenodd;stroke:none;stroke-width:2;stroke-opacity:1;stroke-miterlimit:4;stroke-dasharray:none"
     d="M 220.06138,400.27506 V 8.7084925 c -0.0617,-5.9e-5 -0.12247,0 -0.18419,0 -108.13244,0 -195.783287,87.6508535 -195.783287,195.7832775 0,108.13243 87.650847,195.78329 195.783287,195.78329 0.0617,0 0.12247,6e-5 0.18419,0 z"
     id="path2985"
     inkscape:connector-curvature="0"
     inkscape:export-filename="D:\Documenti\sqlconsulting\Logo\logo_VECT2.png"
     inkscape:export-xdpi="300"
     inkscape:export-ydpi="300" /></g><g
   inkscape:groupmode="layer"
   id="layer2"
   inkscape:label="Layer 2"
   style="display:inline;opacity:1"><g
     id="g61"
     inkscape:export-xdpi="300"
     inkscape:export-ydpi="300"
     style="display:inline;fill:#ffffff;fill-opacity:1;filter:url(#filter4827)"
     transform="translate(0,44.849938)">
	<path
   d="m 163.242,87.078 c -12.69,0 -16.587,15.771 -19.492,31.926 -2.618,14.56 -4.733,34.01 -6.778,52.818 -1.792,16.487 -4.191,38.544 -6.92,53.427 -2.157,-10.623 -4.083,-24.571 -5.561,-35.277 -1.978,-14.324 -4.023,-29.137 -6.622,-40.337 -1.933,-8.332 -5.955,-25.669 -19.29,-25.669 -12.604,0 -17.484,14.701 -19.087,19.532 -2.721,8.197 -4.836,18.823 -6.883,29.098 -1.713,8.604 -4.309,21.639 -6.95,28.854 -1.676,-3.797 -3.396,-9.102 -4.496,-12.499 -4.435,-13.682 -9.021,-27.83 -22.114,-27.83 H 0 v 20 h 36.811 c 1.723,2.877 3.934,9.698 5.327,13.997 4.562,14.073 9.731,30.025 24.111,30.025 12.607,0 17.487,-14.704 19.091,-19.536 2.722,-8.199 4.838,-18.827 6.884,-29.105 1.425,-7.157 3.462,-17.384 5.627,-24.771 2.667,10.852 5.065,28.216 6.827,40.977 1.978,14.324 4.023,29.137 6.622,40.337 1.933,8.332 5.955,25.669 19.29,25.669 12.688,0 16.585,-15.769 19.489,-31.921 2.617,-14.557 4.732,-34.002 6.776,-52.808 1.787,-16.431 4.175,-38.393 6.893,-53.276 2.229,11.012 4.226,25.594 5.755,36.763 1.508,11.017 2.861,20.889 4.335,29.469 1.707,-15.329 6.453,-29.972 13.957,-43.209 -4.996,-35.573 -9.265,-56.654 -24.553,-56.654 z"
   id="path55"
   inkscape:connector-curvature="0"
   style="fill:#ffffff;fill-opacity:1" />
	<path
   d="m 269.622,189.745 c -3.358,8.573 -5.573,19.257 -7.526,28.684 -0.309,1.494 -0.655,3.159 -1.021,4.87 -2.266,-8.888 -4.389,-20.283 -5.912,-28.461 -2.267,-12.172 -4.304,-23.088 -6.798,-32.019 -7.628,7.941 -12.521,17.851 -14.198,28.587 0.48,2.519 0.929,4.922 1.333,7.095 6.128,32.895 10.555,56.663 26.947,56.663 10.15,0 13.66,-10.739 14.813,-14.268 1.649,-5.048 2.995,-11.537 4.418,-18.408 1.616,-7.797 3.287,-15.859 5.497,-22.485 2.395,-7.18 4.386,-9.355 4.984,-9.88 h 35.709 v -20 h -36.134 c -9.572,0 -17.012,6.602 -22.112,19.622 z"
   id="path57"
   inkscape:connector-curvature="0"
   style="fill:#ffffff;fill-opacity:1" />
	<path
   d="m 456.022,331.318 -68.697,-68.697 c -5.084,-5.085 -11.717,-7.675 -18.381,-7.781 25.771,-38.398 21.711,-91.015 -12.197,-124.922 -38.529,-38.53 -101.221,-38.53 -139.749,0 -38.53,38.529 -38.53,101.221 0,139.75 33.907,33.907 86.524,37.969 124.921,12.196 0.107,6.665 2.697,13.297 7.782,18.382 l 68.697,68.697 c 10.391,10.391 27.234,10.391 37.625,0 10.391,-10.391 10.389,-27.235 -0.001,-37.625 z m -120.775,-83.15 c -26.674,26.675 -70.076,26.675 -96.75,0 -26.674,-26.674 -26.674,-70.076 0,-96.75 26.674,-26.674 70.076,-26.674 96.75,0 26.674,26.674 26.674,70.076 0,96.75 z"
   id="path59"
   inkscape:connector-curvature="0"
   style="fill:#ffffff;fill-opacity:1" />
</g></g><g
   id="g91"
   inkscape:export-xdpi="300"
   inkscape:export-ydpi="300"
   style="display:inline">
</g>
</svg>